M48
METRIC,LZ,000.000
;FILE_FORMAT=3:3
;TYPE=PLATED
;Layer: PTH_Through
;Gerber Generator version 0.2
;Holesize 1 = 0.305 mm
T01C0.305
;Holesize 2 = 0.901 mm
T02C0.901
;Holesize 3 = 0.915 mm
T03C0.915
;Holesize 4 = 1.016 mm
T04C1.016
%
G05
G90
T01
X002353Y039219
X002353Y051283
X041707Y072978
X102615Y073856
X093025Y073724
X052330Y073856
X060008Y072509
X069450Y053340
X111710Y027187
X008531Y052587
X009045Y038410
X114126Y038997
X111910Y039899
X110625Y052940
X114842Y041393
X108557Y040640
X107698Y001604
X077301Y058053
X031102Y060005
X064212Y017145
X046794Y060960
X063577Y061018
X066534Y061907
X067841Y061891
X090471Y060909
X068782Y020955
X102300Y059999
X086516Y034625
X001201Y021155
X008859Y015170
X018385Y069567
X018041Y072870
X031825Y080009
X032108Y068580
X075245Y069473
X078276Y080009
X106799Y080009
X078332Y008255
X086516Y082236
T02
X-003637Y073089G85X-003637Y073988
X-008047Y072089G85X-008047Y072989
X-003637Y077088G85X-003637Y077988
X-003637Y080427G85X-003637Y081327
X008047Y073089G85X008047Y073988
X003637Y072089G85X003637Y072989
X008047Y077088G85X008047Y077988
X008047Y080427G85X008047Y081327
T03
X092964Y000635
X091567Y032385
X099568Y032385
T04
X081531Y003175G85X081537Y003175
X081531Y005715G85X081537Y005715
X081531Y008255G85X081537Y008255
X081531Y010795G85X081537Y010795
X076451Y033655G85X076457Y033655
X066291Y005715G85X066297Y005715
X081531Y013335G85X081537Y013335
X081531Y015875G85X081537Y015875
X081531Y018415G85X081537Y018415
X081531Y020955G85X081537Y020955
X081531Y023495G85X081537Y023495
X081531Y026035G85X081537Y026035
X081531Y028575G85X081537Y028575
X081531Y031115G85X081537Y031115
X081531Y033655G85X081537Y033655
X066291Y033655G85X066297Y033655
X066291Y031115G85X066297Y031115
X066291Y028575G85X066297Y028575
X066291Y026035G85X066297Y026035
X066291Y023495G85X066297Y023495
X066291Y020955G85X066297Y020955
X066291Y018415G85X066297Y018415
X066291Y015875G85X066297Y015875
X066291Y013335G85X066297Y013335
X066291Y010795G85X066297Y010795
X066291Y008255G85X066297Y008255
X068831Y033655G85X068837Y033655
X066291Y003175G85X066297Y003175
X073911Y033655G85X073917Y033655
X081531Y000635G85X081537Y000635
X071371Y033655G85X071377Y033655
X078991Y033655G85X078997Y033655
X066291Y000635G85X066297Y000635
M30
