M48
METRIC,LZ,000.000
;FILE_FORMAT=3:3
;TYPE=NON_PLATED
;Layer: NPTH_Through
;Gerber Generator version 0.2
;Holesize 1 = 1.200 mm
T01C1.200
;Holesize 2 = 1.501 mm
T02C1.501
%
G05
G90
T01
X129663Y006183
X129663Y001183
X129663Y018407
X129663Y013407
X129663Y030630
X129663Y025630
X129663Y042854
X129663Y037854
X129663Y055078
X129663Y050078
X-001647Y050205
X-001647Y055205
X-001647Y038140
X-001647Y043140
X-001647Y025694
X-001647Y030694
X-001647Y013375
X-001647Y018375
X-001647Y001691
X-001647Y006691
X016931Y076509
X021931Y076509
X028488Y076509
X033488Y076509
X040172Y076509
X045172Y076509
X051729Y076509
X056729Y076509
X063286Y076509
X068286Y076509
X074843Y076509
X079843Y076509
X086400Y076509
X091400Y076509
X098084Y076509
X103084Y076509
X109768Y076509
X114768Y076509
X121325Y076509
X126325Y076509
T02
X-005827Y082404
X-005766Y075386
X005857Y082404
X005918Y075386
M30
