<svg version="1.1" xmlns="http://www.w3.org/2000/svg" xmlns:xlink="http://www.w3.org/1999/xlink" stroke-linecap="round" stroke-linejoin="round" stroke-width="0" fill-rule="evenodd" clip-rule="evenodd" id="lav11inAsbeN9QEdRnGq_bottom" viewBox="-11176 -1998.97 150174.95 87998.28" width="150.17495000000002mm" height="87.99828mm" class="w-100 h-100"><defs><style>.lav11inAsbeN9QEdRnGq_fr4 {color: #666666;}
.lav11inAsbeN9QEdRnGq_cu {color: #cccccc;}
.lav11inAsbeN9QEdRnGq_cf {color: #cc9933;}
.lav11inAsbeN9QEdRnGq_sm {color: #004200; opacity: 0.75;}
.lav11inAsbeN9QEdRnGq_ss {color: #ffffff;}
.lav11inAsbeN9QEdRnGq_sp {color: #999999;}
.lav11inAsbeN9QEdRnGq_out {color: #000000;}</style><circle cx="0" cy="0" r="990.6" id="ZYCWeU7Tla5t5Vh0vv_6_pad-28"/><circle cx="0" cy="0" r="863.6" id="ZYCWeU7Tla5t5Vh0vv_6_pad-29"/><circle cx="0" cy="0" r="939.8" id="iteJXOe_sHW09k0vcRCd_pad-18"/><circle cx="0" cy="0" r="762" id="iteJXOe_sHW09k0vcRCd_pad-19"/><circle cx="0" cy="0" r="304.8" id="iteJXOe_sHW09k0vcRCd_pad-11"/><circle cx="0" cy="0" r="152.5" id="OTI-VoULaiRcXXjh26iX_pad-1"/><circle cx="0" cy="0" r="457.5" id="OTI-VoULaiRcXXjh26iX_pad-3"/><circle cx="0" cy="0" r="600" id="Q6iVvA7E0J_rVsxMOuF0_pad-1"/><circle cx="0" cy="0" r="750.5" id="Q6iVvA7E0J_rVsxMOuF0_pad-2"/><g id="lav11inAsbeN9QEdRnGq_bottom_soldermask"><path d="M -4437.37 72237.6 -4437.37 74838.55 -2837.18 74838.55 -2837.18 72237.6"/><path d="M -8846.81 71236.84 -8846.81 73840.34 -7246.62 73840.34 -7246.62 71236.84"/><path d="M -4437.37 76238.1 -4437.37 78839.05 -2837.18 78839.05 -2837.18 76238.1"/><path d="M -4437.37 79575.65 -4437.37 82179.15 -2837.18 82179.15 -2837.18 79575.65"/><path d="M 7246.62 72237.6 7246.62 74838.55 8846.81 74838.55 8846.81 72237.6"/><path d="M 2837.18 71236.84 2837.18 73840.34 4437.37 73840.34 4437.37 71236.84"/><path d="M 7246.62 76238.1 7246.62 78839.05 8846.81 78839.05 8846.81 76238.1"/><path d="M 7246.62 79575.65 7246.62 82179.15 8846.81 82179.15 8846.81 79575.65"/><use xlink:href="#ZYCWeU7Tla5t5Vh0vv_6_pad-28" x="81534" y="3175"/><use xlink:href="#ZYCWeU7Tla5t5Vh0vv_6_pad-28" x="81534" y="5715"/><use xlink:href="#ZYCWeU7Tla5t5Vh0vv_6_pad-28" x="81534" y="8255"/><use xlink:href="#ZYCWeU7Tla5t5Vh0vv_6_pad-28" x="81534" y="10795"/><use xlink:href="#ZYCWeU7Tla5t5Vh0vv_6_pad-28" x="76454" y="33655"/><use xlink:href="#ZYCWeU7Tla5t5Vh0vv_6_pad-28" x="66294" y="5715"/><use xlink:href="#ZYCWeU7Tla5t5Vh0vv_6_pad-28" x="81534" y="13335"/><use xlink:href="#ZYCWeU7Tla5t5Vh0vv_6_pad-28" x="81534" y="15875"/><use xlink:href="#ZYCWeU7Tla5t5Vh0vv_6_pad-28" x="81534" y="18415"/><use xlink:href="#ZYCWeU7Tla5t5Vh0vv_6_pad-28" x="81534" y="20955"/><use xlink:href="#ZYCWeU7Tla5t5Vh0vv_6_pad-28" x="81534" y="23495"/><use xlink:href="#ZYCWeU7Tla5t5Vh0vv_6_pad-28" x="81534" y="26035"/><use xlink:href="#ZYCWeU7Tla5t5Vh0vv_6_pad-28" x="81534" y="28575"/><use xlink:href="#ZYCWeU7Tla5t5Vh0vv_6_pad-28" x="81534" y="31115"/><use xlink:href="#ZYCWeU7Tla5t5Vh0vv_6_pad-28" x="81534" y="33655"/><use xlink:href="#ZYCWeU7Tla5t5Vh0vv_6_pad-28" x="66294" y="33655"/><use xlink:href="#ZYCWeU7Tla5t5Vh0vv_6_pad-28" x="66294" y="31115"/><use xlink:href="#ZYCWeU7Tla5t5Vh0vv_6_pad-28" x="66294" y="28575"/><use xlink:href="#ZYCWeU7Tla5t5Vh0vv_6_pad-28" x="66294" y="26035"/><use xlink:href="#ZYCWeU7Tla5t5Vh0vv_6_pad-28" x="66294" y="23495"/><use xlink:href="#ZYCWeU7Tla5t5Vh0vv_6_pad-28" x="66294" y="20955"/><use xlink:href="#ZYCWeU7Tla5t5Vh0vv_6_pad-28" x="66294" y="18415"/><use xlink:href="#ZYCWeU7Tla5t5Vh0vv_6_pad-28" x="66294" y="15875"/><use xlink:href="#ZYCWeU7Tla5t5Vh0vv_6_pad-28" x="66294" y="13335"/><use xlink:href="#ZYCWeU7Tla5t5Vh0vv_6_pad-28" x="66294" y="10795"/><use xlink:href="#ZYCWeU7Tla5t5Vh0vv_6_pad-28" x="66294" y="8255"/><use xlink:href="#ZYCWeU7Tla5t5Vh0vv_6_pad-28" x="68834" y="33655"/><use xlink:href="#ZYCWeU7Tla5t5Vh0vv_6_pad-28" x="66294" y="3175"/><use xlink:href="#ZYCWeU7Tla5t5Vh0vv_6_pad-28" x="73914" y="33655"/><use xlink:href="#ZYCWeU7Tla5t5Vh0vv_6_pad-28" x="81534" y="635"/><use xlink:href="#ZYCWeU7Tla5t5Vh0vv_6_pad-28" x="71374" y="33655"/><use xlink:href="#ZYCWeU7Tla5t5Vh0vv_6_pad-28" x="78994" y="33655"/><use xlink:href="#ZYCWeU7Tla5t5Vh0vv_6_pad-28" x="66294" y="635"/><use xlink:href="#ZYCWeU7Tla5t5Vh0vv_6_pad-29" x="92964" y="635"/><use xlink:href="#ZYCWeU7Tla5t5Vh0vv_6_pad-29" x="91567" y="32385"/><use xlink:href="#ZYCWeU7Tla5t5Vh0vv_6_pad-29" x="99568" y="32385"/></g><g id="lav11inAsbeN9QEdRnGq_bottom_copper"><path d="M 81534 3175.02 77724.25 6984.77 77724.25 45065.97 69450.2 53340.02 M 81534 8255.02 108557.31 35278.33 108557.31 40640.02 M 66294 15875.02 66294 16156.2 62149.48 20300.72 62149.48 29785.33 18479 73455.8 18069.05 73455.8 9116.56 82408.29 7036.05 82408.29 6962.13 82334.37 6962.13 81591.93 -2621.02 72008.77 -3637.28 72008.77 M -3637.28 73538.35 -3637.28 72008.77 M 2353.05 51283.38 2353.05 39219.14 M 3637.28 71009.02 2353.05 69724.8 2353.05 51283.38 M 3637.28 72538.61 3637.28 71009.02 M 52329.58 73856.11 42585.38 73856.11 41706.79 72977.52 M 60007.5 72509.4 58660.79 73856.11 52329.58 73856.11 M 102614.98 73856.11 93157.29 73856.11 93024.95 73723.77 M 66294 5715.02 72644 12065.02 72644 34176.23 73407.01 34939.24 75169.77 34939.24 76454 33655.02 M 8046.71 77538.35 8046.71 76008.76 M 66294 3175.02 10515.6 58953.42 10515.6 73539.88 8046.71 76008.76 M 66294 18415.02 62641.22 22067.79 62641.22 29870.17 18647.91 73863.47 18238.21 73863.47 8650.47 83451.21 -2593.08 83451.21 -3637.28 82407.02 M -3637.28 80877.43 -3637.28 82407.02 M 8046.71 73538.35 8046.71 75068.2 M 66294 10795.02 16050.26 61038.76 16050.26 72093.09 9073.89 79069.46 7089.64 79069.46 6949.18 78929 6949.18 76165.73 8046.71 75068.2 M 8046.71 80877.43 17799.04 71125.1 17799.04 61829.97 66294 13335.02 M 112811.81 38997.15 112811.81 28288.76 111709.96 27186.91 M 112811.81 38997.15 114125.75 38997.15 M 111910.36 39898.59 112811.81 38997.15 M 8530.59 52586.91 8530.59 38924.76 9045.19 38410.15 M 73914 33655.02 73914 8255.02 81534 635.02 M 81534 5715.02 79873.85 7375.16 79873.85 16136.13 80882.74 17145.02 82067.14 17145.02 110625.38 45703.26 110625.38 52939.97 M 108557.31 40640.02 114088.41 40640.02 114841.78 41393.38 M 81534 15875.02 80295.49 14636.52 80295.49 7710.7 81021.17 6985.02 102316.78 6985.02 107697.52 1604.28 M 81534 20955.02 82853.27 22274.3 82853.27 52500.3 77300.83 58052.74 M 31101.79 60004.73 31101.79 50254.94 64211.7 17145.02 M 66294 23495.02 63420.75 26368.27 63420.75 44332.93 46793.65 60960.02 M 66294 26035.02 63947.54 28381.47 63947.54 60647.09 63576.96 61017.68 M 66294 28575.02 64355.47 30513.55 64355.47 59728.88 66533.52 61906.93 M 66294 31115.02 64989.2 32419.82 64989.2 59039.78 67840.86 61891.44 M 90471.49 60908.97 76190.6 60908.97 68716.14 53434.51 68716.14 53106.59 70104 51718.74 70104 22277.34 68781.67 20955.02 M 86515.7 34624.79 86515.7 44215.07 102300.02 59999.39 M 1200.65 21154.66 2874.01 21154.66 8859.01 15169.66 M 18041.36 72870.33 18384.52 72527.18 18384.52 69566.81 M 31824.93 80009.51 31824.93 68862.72 32107.63 68580.02 M 75245.21 69472.83 78275.94 72503.56 78275.94 80009.51 M 106799.38 80009.26 106799.38 44494.22 82039.71 19734.55 80991.96 19734.55 78332.07 17074.66 78332.07 8255.02 M 68834 33655.02 68227.44 34261.57 68227.44 60904.14 86515.7 79192.39 86515.7 82235.57" fill="none" stroke-width="254"/><path d="M -4387.34 74788.52 -2887.21 74788.52 -2887.21 72288.39 -4387.34 72288.39"/><path d="M -8796.78 73788.52 -7296.65 73788.52 -7296.65 71288.65 -8796.78 71288.65"/><path d="M -4387.34 78788.51 -2887.21 78788.51 -2887.21 76288.39 -4387.34 76288.39"/><path d="M -4387.34 82127.34 -2887.21 82127.34 -2887.21 79627.47 -4387.34 79627.47"/><path d="M 7296.65 74788.52 8796.78 74788.52 8796.78 72288.39 7296.65 72288.39"/><path d="M 2887.21 73788.52 4387.34 73788.52 4387.34 71288.65 2887.21 71288.65"/><path d="M 7296.65 78788.51 8796.78 78788.51 8796.78 76288.39 7296.65 76288.39"/><path d="M 7296.65 82127.34 8796.78 82127.34 8796.78 79627.47 7296.65 79627.47"/><use xlink:href="#iteJXOe_sHW09k0vcRCd_pad-18" x="81534" y="3175"/><use xlink:href="#iteJXOe_sHW09k0vcRCd_pad-18" x="81534" y="5715"/><use xlink:href="#iteJXOe_sHW09k0vcRCd_pad-18" x="81534" y="8255"/><use xlink:href="#iteJXOe_sHW09k0vcRCd_pad-18" x="81534" y="10795"/><use xlink:href="#iteJXOe_sHW09k0vcRCd_pad-18" x="76454" y="33655"/><use xlink:href="#iteJXOe_sHW09k0vcRCd_pad-18" x="66294" y="5715"/><use xlink:href="#iteJXOe_sHW09k0vcRCd_pad-18" x="81534" y="13335"/><use xlink:href="#iteJXOe_sHW09k0vcRCd_pad-18" x="81534" y="15875"/><use xlink:href="#iteJXOe_sHW09k0vcRCd_pad-18" x="81534" y="18415"/><use xlink:href="#iteJXOe_sHW09k0vcRCd_pad-18" x="81534" y="20955"/><use xlink:href="#iteJXOe_sHW09k0vcRCd_pad-18" x="81534" y="23495"/><use xlink:href="#iteJXOe_sHW09k0vcRCd_pad-18" x="81534" y="26035"/><use xlink:href="#iteJXOe_sHW09k0vcRCd_pad-18" x="81534" y="28575"/><use xlink:href="#iteJXOe_sHW09k0vcRCd_pad-18" x="81534" y="31115"/><use xlink:href="#iteJXOe_sHW09k0vcRCd_pad-18" x="81534" y="33655"/><use xlink:href="#iteJXOe_sHW09k0vcRCd_pad-18" x="66294" y="33655"/><use xlink:href="#iteJXOe_sHW09k0vcRCd_pad-18" x="66294" y="31115"/><use xlink:href="#iteJXOe_sHW09k0vcRCd_pad-18" x="66294" y="28575"/><use xlink:href="#iteJXOe_sHW09k0vcRCd_pad-18" x="66294" y="26035"/><use xlink:href="#iteJXOe_sHW09k0vcRCd_pad-18" x="66294" y="23495"/><use xlink:href="#iteJXOe_sHW09k0vcRCd_pad-18" x="66294" y="20955"/><use xlink:href="#iteJXOe_sHW09k0vcRCd_pad-18" x="66294" y="18415"/><use xlink:href="#iteJXOe_sHW09k0vcRCd_pad-18" x="66294" y="15875"/><use xlink:href="#iteJXOe_sHW09k0vcRCd_pad-18" x="66294" y="13335"/><use xlink:href="#iteJXOe_sHW09k0vcRCd_pad-18" x="66294" y="10795"/><use xlink:href="#iteJXOe_sHW09k0vcRCd_pad-18" x="66294" y="8255"/><use xlink:href="#iteJXOe_sHW09k0vcRCd_pad-18" x="68834" y="33655"/><use xlink:href="#iteJXOe_sHW09k0vcRCd_pad-18" x="66294" y="3175"/><use xlink:href="#iteJXOe_sHW09k0vcRCd_pad-18" x="73914" y="33655"/><use xlink:href="#iteJXOe_sHW09k0vcRCd_pad-18" x="81534" y="635"/><use xlink:href="#iteJXOe_sHW09k0vcRCd_pad-18" x="71374" y="33655"/><use xlink:href="#iteJXOe_sHW09k0vcRCd_pad-18" x="78994" y="33655"/><use xlink:href="#iteJXOe_sHW09k0vcRCd_pad-18" x="66294" y="635"/><use xlink:href="#iteJXOe_sHW09k0vcRCd_pad-19" x="92964" y="635"/><use xlink:href="#iteJXOe_sHW09k0vcRCd_pad-19" x="91567" y="32385"/><use xlink:href="#iteJXOe_sHW09k0vcRCd_pad-19" x="99568" y="32385"/><use xlink:href="#iteJXOe_sHW09k0vcRCd_pad-11" x="2353.05" y="39219.12"/><use xlink:href="#iteJXOe_sHW09k0vcRCd_pad-11" x="2353.05" y="51283.36"/><use xlink:href="#iteJXOe_sHW09k0vcRCd_pad-11" x="41706.79" y="72977.5"/><use xlink:href="#iteJXOe_sHW09k0vcRCd_pad-11" x="102614.98" y="73856.08"/><use xlink:href="#iteJXOe_sHW09k0vcRCd_pad-11" x="93024.95" y="73723.75"/><use xlink:href="#iteJXOe_sHW09k0vcRCd_pad-11" x="52329.58" y="73856.08"/><use xlink:href="#iteJXOe_sHW09k0vcRCd_pad-11" x="60007.5" y="72509.37"/><use xlink:href="#iteJXOe_sHW09k0vcRCd_pad-11" x="69450.2" y="53340"/><use xlink:href="#iteJXOe_sHW09k0vcRCd_pad-11" x="111709.96" y="27186.88"/><use xlink:href="#iteJXOe_sHW09k0vcRCd_pad-11" x="8530.59" y="52586.88"/><use xlink:href="#iteJXOe_sHW09k0vcRCd_pad-11" x="9045.19" y="38410.13"/><use xlink:href="#iteJXOe_sHW09k0vcRCd_pad-11" x="114125.75" y="38997.12"/><use xlink:href="#iteJXOe_sHW09k0vcRCd_pad-11" x="111910.36" y="39898.57"/><use xlink:href="#iteJXOe_sHW09k0vcRCd_pad-11" x="110625.38" y="52939.95"/><use xlink:href="#iteJXOe_sHW09k0vcRCd_pad-11" x="114841.78" y="41393.36"/><use xlink:href="#iteJXOe_sHW09k0vcRCd_pad-11" x="108557.31" y="40640"/><use xlink:href="#iteJXOe_sHW09k0vcRCd_pad-11" x="107697.52" y="1604.26"/><use xlink:href="#iteJXOe_sHW09k0vcRCd_pad-11" x="77300.83" y="58052.71"/><use xlink:href="#iteJXOe_sHW09k0vcRCd_pad-11" x="31101.79" y="60004.7"/><use xlink:href="#iteJXOe_sHW09k0vcRCd_pad-11" x="64211.7" y="17145"/><use xlink:href="#iteJXOe_sHW09k0vcRCd_pad-11" x="46793.65" y="60960"/><use xlink:href="#iteJXOe_sHW09k0vcRCd_pad-11" x="63576.96" y="61017.65"/><use xlink:href="#iteJXOe_sHW09k0vcRCd_pad-11" x="66533.52" y="61906.91"/><use xlink:href="#iteJXOe_sHW09k0vcRCd_pad-11" x="67840.86" y="61891.41"/><use xlink:href="#iteJXOe_sHW09k0vcRCd_pad-11" x="90471.49" y="60908.94"/><use xlink:href="#iteJXOe_sHW09k0vcRCd_pad-11" x="68781.67" y="20955"/><use xlink:href="#iteJXOe_sHW09k0vcRCd_pad-11" x="102300.02" y="59999.37"/><use xlink:href="#iteJXOe_sHW09k0vcRCd_pad-11" x="86515.7" y="34624.77"/><use xlink:href="#iteJXOe_sHW09k0vcRCd_pad-11" x="1200.65" y="21154.64"/><use xlink:href="#iteJXOe_sHW09k0vcRCd_pad-11" x="8859.01" y="15169.64"/><use xlink:href="#iteJXOe_sHW09k0vcRCd_pad-11" x="18384.52" y="69566.79"/><use xlink:href="#iteJXOe_sHW09k0vcRCd_pad-11" x="18041.36" y="72870.31"/><use xlink:href="#iteJXOe_sHW09k0vcRCd_pad-11" x="31824.93" y="80009.49"/><use xlink:href="#iteJXOe_sHW09k0vcRCd_pad-11" x="32107.63" y="68580"/><use xlink:href="#iteJXOe_sHW09k0vcRCd_pad-11" x="75245.21" y="69472.8"/><use xlink:href="#iteJXOe_sHW09k0vcRCd_pad-11" x="78275.94" y="80009.49"/><use xlink:href="#iteJXOe_sHW09k0vcRCd_pad-11" x="106799.38" y="80009.23"/><use xlink:href="#iteJXOe_sHW09k0vcRCd_pad-11" x="78332.07" y="8255"/><use xlink:href="#iteJXOe_sHW09k0vcRCd_pad-11" x="86515.7" y="82235.54"/></g><g id="lav11inAsbeN9QEdRnGq_bottom_drill1"><use xlink:href="#OTI-VoULaiRcXXjh26iX_pad-1" x="2353" y="39219"/><use xlink:href="#OTI-VoULaiRcXXjh26iX_pad-1" x="2353" y="51283"/><use xlink:href="#OTI-VoULaiRcXXjh26iX_pad-1" x="41707" y="72978"/><use xlink:href="#OTI-VoULaiRcXXjh26iX_pad-1" x="102615" y="73856"/><use xlink:href="#OTI-VoULaiRcXXjh26iX_pad-1" x="93025" y="73724"/><use xlink:href="#OTI-VoULaiRcXXjh26iX_pad-1" x="52330" y="73856"/><use xlink:href="#OTI-VoULaiRcXXjh26iX_pad-1" x="60008" y="72509"/><use xlink:href="#OTI-VoULaiRcXXjh26iX_pad-1" x="69450" y="53340"/><use xlink:href="#OTI-VoULaiRcXXjh26iX_pad-1" x="111710" y="27187"/><use xlink:href="#OTI-VoULaiRcXXjh26iX_pad-1" x="8531" y="52587"/><use xlink:href="#OTI-VoULaiRcXXjh26iX_pad-1" x="9045" y="38410"/><use xlink:href="#OTI-VoULaiRcXXjh26iX_pad-1" x="114126" y="38997"/><use xlink:href="#OTI-VoULaiRcXXjh26iX_pad-1" x="111910" y="39899"/><use xlink:href="#OTI-VoULaiRcXXjh26iX_pad-1" x="110625" y="52940"/><use xlink:href="#OTI-VoULaiRcXXjh26iX_pad-1" x="114842" y="41393"/><use xlink:href="#OTI-VoULaiRcXXjh26iX_pad-1" x="108557" y="40640"/><use xlink:href="#OTI-VoULaiRcXXjh26iX_pad-1" x="107698" y="1604"/><use xlink:href="#OTI-VoULaiRcXXjh26iX_pad-1" x="77301" y="58053"/><use xlink:href="#OTI-VoULaiRcXXjh26iX_pad-1" x="31102" y="60005"/><use xlink:href="#OTI-VoULaiRcXXjh26iX_pad-1" x="64212" y="17145"/><use xlink:href="#OTI-VoULaiRcXXjh26iX_pad-1" x="46794" y="60960"/><use xlink:href="#OTI-VoULaiRcXXjh26iX_pad-1" x="63577" y="61018"/><use xlink:href="#OTI-VoULaiRcXXjh26iX_pad-1" x="66534" y="61907"/><use xlink:href="#OTI-VoULaiRcXXjh26iX_pad-1" x="67841" y="61891"/><use xlink:href="#OTI-VoULaiRcXXjh26iX_pad-1" x="90471" y="60909"/><use xlink:href="#OTI-VoULaiRcXXjh26iX_pad-1" x="68782" y="20955"/><use xlink:href="#OTI-VoULaiRcXXjh26iX_pad-1" x="102300" y="59999"/><use xlink:href="#OTI-VoULaiRcXXjh26iX_pad-1" x="86516" y="34625"/><use xlink:href="#OTI-VoULaiRcXXjh26iX_pad-1" x="1201" y="21155"/><use xlink:href="#OTI-VoULaiRcXXjh26iX_pad-1" x="8859" y="15170"/><use xlink:href="#OTI-VoULaiRcXXjh26iX_pad-1" x="18385" y="69567"/><use xlink:href="#OTI-VoULaiRcXXjh26iX_pad-1" x="18041" y="72870"/><use xlink:href="#OTI-VoULaiRcXXjh26iX_pad-1" x="31825" y="80009"/><use xlink:href="#OTI-VoULaiRcXXjh26iX_pad-1" x="32108" y="68580"/><use xlink:href="#OTI-VoULaiRcXXjh26iX_pad-1" x="75245" y="69473"/><use xlink:href="#OTI-VoULaiRcXXjh26iX_pad-1" x="78276" y="80009"/><use xlink:href="#OTI-VoULaiRcXXjh26iX_pad-1" x="106799" y="80009"/><use xlink:href="#OTI-VoULaiRcXXjh26iX_pad-1" x="78332" y="8255"/><use xlink:href="#OTI-VoULaiRcXXjh26iX_pad-1" x="86516" y="82236"/><path d="M -3637 73089 -3637 73988 M -8047 72089 -8047 72989 M -3637 77088 -3637 77988 M -3637 80427 -3637 81327 M 8047 73089 8047 73988 M 3637 72089 3637 72989 M 8047 77088 8047 77988 M 8047 80427 8047 81327" fill="none" stroke-width="901"/><use xlink:href="#OTI-VoULaiRcXXjh26iX_pad-3" x="92964" y="635"/><use xlink:href="#OTI-VoULaiRcXXjh26iX_pad-3" x="91567" y="32385"/><use xlink:href="#OTI-VoULaiRcXXjh26iX_pad-3" x="99568" y="32385"/><path d="M 81531 3175 81537 3175 M 81531 5715 81537 5715 M 81531 8255 81537 8255 M 81531 10795 81537 10795 M 76451 33655 76457 33655 M 66291 5715 66297 5715 M 81531 13335 81537 13335 M 81531 15875 81537 15875 M 81531 18415 81537 18415 M 81531 20955 81537 20955 M 81531 23495 81537 23495 M 81531 26035 81537 26035 M 81531 28575 81537 28575 M 81531 31115 81537 31115 M 81531 33655 81537 33655 M 66291 33655 66297 33655 M 66291 31115 66297 31115 M 66291 28575 66297 28575 M 66291 26035 66297 26035 M 66291 23495 66297 23495 M 66291 20955 66297 20955 M 66291 18415 66297 18415 M 66291 15875 66297 15875 M 66291 13335 66297 13335 M 66291 10795 66297 10795 M 66291 8255 66297 8255 M 68831 33655 68837 33655 M 66291 3175 66297 3175 M 73911 33655 73917 33655 M 81531 635 81537 635 M 71371 33655 71377 33655 M 78991 33655 78997 33655 M 66291 635 66297 635" fill="none" stroke-width="1016"/></g><g id="lav11inAsbeN9QEdRnGq_bottom_drill2"><use xlink:href="#Q6iVvA7E0J_rVsxMOuF0_pad-1" x="129663" y="6183"/><use xlink:href="#Q6iVvA7E0J_rVsxMOuF0_pad-1" x="129663" y="1183"/><use xlink:href="#Q6iVvA7E0J_rVsxMOuF0_pad-1" x="129663" y="18407"/><use xlink:href="#Q6iVvA7E0J_rVsxMOuF0_pad-1" x="129663" y="13407"/><use xlink:href="#Q6iVvA7E0J_rVsxMOuF0_pad-1" x="129663" y="30630"/><use xlink:href="#Q6iVvA7E0J_rVsxMOuF0_pad-1" x="129663" y="25630"/><use xlink:href="#Q6iVvA7E0J_rVsxMOuF0_pad-1" x="129663" y="42854"/><use xlink:href="#Q6iVvA7E0J_rVsxMOuF0_pad-1" x="129663" y="37854"/><use xlink:href="#Q6iVvA7E0J_rVsxMOuF0_pad-1" x="129663" y="55078"/><use xlink:href="#Q6iVvA7E0J_rVsxMOuF0_pad-1" x="129663" y="50078"/><use xlink:href="#Q6iVvA7E0J_rVsxMOuF0_pad-1" x="-1647" y="50205"/><use xlink:href="#Q6iVvA7E0J_rVsxMOuF0_pad-1" x="-1647" y="55205"/><use xlink:href="#Q6iVvA7E0J_rVsxMOuF0_pad-1" x="-1647" y="38140"/><use xlink:href="#Q6iVvA7E0J_rVsxMOuF0_pad-1" x="-1647" y="43140"/><use xlink:href="#Q6iVvA7E0J_rVsxMOuF0_pad-1" x="-1647" y="25694"/><use xlink:href="#Q6iVvA7E0J_rVsxMOuF0_pad-1" x="-1647" y="30694"/><use xlink:href="#Q6iVvA7E0J_rVsxMOuF0_pad-1" x="-1647" y="13375"/><use xlink:href="#Q6iVvA7E0J_rVsxMOuF0_pad-1" x="-1647" y="18375"/><use xlink:href="#Q6iVvA7E0J_rVsxMOuF0_pad-1" x="-1647" y="1691"/><use xlink:href="#Q6iVvA7E0J_rVsxMOuF0_pad-1" x="-1647" y="6691"/><use xlink:href="#Q6iVvA7E0J_rVsxMOuF0_pad-1" x="16931" y="76509"/><use xlink:href="#Q6iVvA7E0J_rVsxMOuF0_pad-1" x="21931" y="76509"/><use xlink:href="#Q6iVvA7E0J_rVsxMOuF0_pad-1" x="28488" y="76509"/><use xlink:href="#Q6iVvA7E0J_rVsxMOuF0_pad-1" x="33488" y="76509"/><use xlink:href="#Q6iVvA7E0J_rVsxMOuF0_pad-1" x="40172" y="76509"/><use xlink:href="#Q6iVvA7E0J_rVsxMOuF0_pad-1" x="45172" y="76509"/><use xlink:href="#Q6iVvA7E0J_rVsxMOuF0_pad-1" x="51729" y="76509"/><use xlink:href="#Q6iVvA7E0J_rVsxMOuF0_pad-1" x="56729" y="76509"/><use xlink:href="#Q6iVvA7E0J_rVsxMOuF0_pad-1" x="63286" y="76509"/><use xlink:href="#Q6iVvA7E0J_rVsxMOuF0_pad-1" x="68286" y="76509"/><use xlink:href="#Q6iVvA7E0J_rVsxMOuF0_pad-1" x="74843" y="76509"/><use xlink:href="#Q6iVvA7E0J_rVsxMOuF0_pad-1" x="79843" y="76509"/><use xlink:href="#Q6iVvA7E0J_rVsxMOuF0_pad-1" x="86400" y="76509"/><use xlink:href="#Q6iVvA7E0J_rVsxMOuF0_pad-1" x="91400" y="76509"/><use xlink:href="#Q6iVvA7E0J_rVsxMOuF0_pad-1" x="98084" y="76509"/><use xlink:href="#Q6iVvA7E0J_rVsxMOuF0_pad-1" x="103084" y="76509"/><use xlink:href="#Q6iVvA7E0J_rVsxMOuF0_pad-1" x="109768" y="76509"/><use xlink:href="#Q6iVvA7E0J_rVsxMOuF0_pad-1" x="114768" y="76509"/><use xlink:href="#Q6iVvA7E0J_rVsxMOuF0_pad-1" x="121325" y="76509"/><use xlink:href="#Q6iVvA7E0J_rVsxMOuF0_pad-1" x="126325" y="76509"/><use xlink:href="#Q6iVvA7E0J_rVsxMOuF0_pad-2" x="-5827" y="82404"/><use xlink:href="#Q6iVvA7E0J_rVsxMOuF0_pad-2" x="-5766" y="75386"/><use xlink:href="#Q6iVvA7E0J_rVsxMOuF0_pad-2" x="5857" y="82404"/><use xlink:href="#Q6iVvA7E0J_rVsxMOuF0_pad-2" x="5918" y="75386"/></g><clipPath id="lav11inAsbeN9QEdRnGq_bottom_outline"><path d="M 7000.23 85999.31 138998.95 85999.31 138998.95 -1998.97 -11176 -1998.97 -11176 85999.31 7000.23 85999.31" fill="none" stroke-width="254"/></clipPath><mask id="lav11inAsbeN9QEdRnGq_bottom_mech-mask"><g fill="#000" stroke="#000"><rect x="-11176" y="-1998.97" width="150174.95" height="87998.28" fill="#fff"/><use xlink:href="#lav11inAsbeN9QEdRnGq_bottom_drill1"/><use xlink:href="#lav11inAsbeN9QEdRnGq_bottom_drill2"/></g></mask><mask id="lav11inAsbeN9QEdRnGq_bottom_cf-mask"><g fill="#fff" stroke="#fff"><use xlink:href="#lav11inAsbeN9QEdRnGq_bottom_soldermask"/></g></mask><mask id="lav11inAsbeN9QEdRnGq_bottom_sm-mask"><g fill="#000" stroke="#000"><rect x="-11176" y="-1998.97" width="150174.95" height="87998.28" fill="#fff"/><use xlink:href="#lav11inAsbeN9QEdRnGq_bottom_soldermask"/></g></mask></defs><g transform="translate(0,84000.34) scale(1,-1)"><g mask="url(#lav11inAsbeN9QEdRnGq_bottom_mech-mask)" clip-path="url(#lav11inAsbeN9QEdRnGq_bottom_outline)" transform="translate(127822.95000000001,0) scale(-1,1)"><rect x="-11176" y="-1998.97" width="150174.95" height="87998.28" fill="currentColor" class="lav11inAsbeN9QEdRnGq_fr4"/><use xlink:href="#lav11inAsbeN9QEdRnGq_bottom_copper" fill="currentColor" stroke="currentColor" class="lav11inAsbeN9QEdRnGq_cu"/><use xlink:href="#lav11inAsbeN9QEdRnGq_bottom_copper" fill="currentColor" stroke="currentColor" class="lav11inAsbeN9QEdRnGq_cf" mask="url(#lav11inAsbeN9QEdRnGq_bottom_cf-mask)"/><g mask="url(#lav11inAsbeN9QEdRnGq_bottom_sm-mask)"><rect x="-11176" y="-1998.97" width="150174.95" height="87998.28" fill="currentColor" class="lav11inAsbeN9QEdRnGq_sm"/></g></g></g></svg>